<svg id="Layer_1" data-name="Layer 1" xmlns="http://www.w3.org/2000/svg" viewBox="0 0 4044.64 2368.62"><defs><style>.cls-1{fill:#4582c3;}</style></defs><title>AYB HUB BLACKsvg</title><path d="M2843.34,1334.5h239.53l183.25,1125.25H3089.3l-32.15-223.44v3.2H2856.21l-32.14,220.24h-164Zm192.91,752.31-78.78-556.2h-3.2l-77.16,556.2Z" transform="translate(-477.68 -1315.69)"/><path d="M3439.63,1980.71,3225.84,1334.5h188.07l120.58,413.13h3.2l120.58-413.13h172l-213.79,646.21v479H3439.63Z" transform="translate(-477.68 -1315.69)"/><path d="M3910.54,1334.5h266.85q136.6,0,199.32,63.5t62.69,195.3v45q0,86.79-28.13,141.45t-86,78.76v3.23q131.81,45,131.82,234.68v96.46q0,130.21-68.32,198.52t-200.13,68.33h-278.1Zm245.95,458.14q53,0,79.56-27.32t26.53-91.65V1611q0-61.08-21.71-88.41t-68.3-27.32h-85.21v297.39ZM4188.64,2299q46.59,0,69.11-24.91t22.52-86V2090q0-77.16-26.53-106.9t-87.62-29.73h-78.76V2299Z" transform="translate(-477.68 -1315.69)"/><path d="M2654.61,2542.08h176.82v458.14h189.69V2542.08h176.82V3667.33H3021.12V3161H2831.43v506.36H2654.61Z" transform="translate(-477.68 -1315.69)"/><path d="M3390.75,3610.27q-67.53-73.12-67.52-209.79v-858.4h176.82v871.27q0,57.89,23.31,83.58t66.71,25.72q43.41,0,66.72-25.72t23.31-83.58V2542.08h170.39v858.4q0,136.67-67.51,209.79t-196.12,73.13Q3458.25,3683.4,3390.75,3610.27Z" transform="translate(-477.68 -1315.69)"/><path d="M3975.77,2542.08h266.85q136.6,0,199.32,63.5t62.69,195.3v45q0,86.79-28.14,141.45t-86,78.76v3.22q131.81,45,131.82,234.69v96.46q0,130.21-68.32,198.52t-200.13,68.33h-278.1Zm246,458.14q53,0,79.56-27.32t26.53-91.65v-62.69q0-61.08-21.71-88.41t-68.3-27.33h-85.21v297.4Zm32.15,506.36q46.59,0,69.11-24.91t22.52-86V3297.6q0-77.17-26.53-106.9T4231.35,3161h-78.76v345.61Z" transform="translate(-477.68 -1315.69)"/><path class="cls-1" d="M477.79,2499.24q0-436,.14-872c.24-155.16,99.15-276.11,249.94-306.06,22.56-4.48,46.16-5.15,69.28-5.16q645-.43,1290-.12c159.44.11,277.46,90.86,311.57,239.66,5.51,24,7.62,49.37,7.65,74.1q.66,682.41.4,1364.83c0,59.76-20.3,110.45-62.75,152.81q-237.44,236.88-474.29,474.36c-41.66,41.78-91.23,62.49-150.2,62.46-310.46-.19-620.93.95-931.39-.54-153.27-.73-268.58-93.25-302-238.23-6.1-26.49-8-54.46-8.05-81.76Q477.3,2931.39,477.79,2499.24Zm962.15-577.35q216.66,0,433.31-.07c55.64-.09,92.31-35.27,90.87-86.15-1.3-46-38.37-79-90.21-79.05q-250.19-.31-500.36-.08-181.85,0-363.67,0c-36.74,0-65.61,14.08-82.08,47.47-27.82,56.43,14.38,117.59,81.42,117.8C1152.79,1922.2,1296.37,1921.89,1439.94,1921.89Zm2.31,439.37q214,0,428.07-.14c11.91,0,24.35-.06,35.64-3.29,39.91-11.4,63.66-50.15,57.65-91.74-5.92-41-40.49-68.36-89.5-68.41q-431.94-.43-863.88.1c-12.67,0-26,1.62-37.87,5.81-37,13.1-57.78,51.09-51.38,90.84,6,37.29,40.08,66.5,80.3,66.61C1148.27,2361.44,1295.26,2361.2,1442.25,2361.26ZM1719,3478.09l482.8-482.8h-21.62q-167.62,0-335.26,0c-84,0-126.81,42.72-126.94,126.89q-.27,167.64,0,335.27C1718,3465.75,1718.82,3474,1719,3478.09Zm-441.22-839.58q-134.05,0-268.11,0c-52.94.11-88.33,31.53-89.35,78.76-1.06,49.24,33.26,84.39,86.55,84.6q270.67,1.07,541.36-.05c52-.23,86-35,85.57-82.95-.44-47.21-36.22-80.21-87.92-80.34C1456.54,2638.35,1367.17,2638.51,1277.81,2638.51Zm-83.33,604.71c61,0,122,.2,183-.06,54.58-.23,91.39-34.12,91.14-83.29-.25-47.73-37.13-81.8-89.9-81.91q-184.34-.4-368.66,0c-53.21.12-89.54,33.73-89.78,81.9-.24,49.3,36.43,83.07,91.12,83.3C1072.45,3243.42,1133.47,3243.22,1194.48,3243.22Z" transform="translate(-477.68 -1315.69)"/></svg>