<svg id="Layer_1" data-name="Layer 1" xmlns="http://www.w3.org/2000/svg" viewBox="0 0 1177.28 1480.56"><title>black_typo</title><path d="M510.54,259.72h151L777,968.93H665.55L645.29,828.1v2H518.64l-20.26,138.8H395ZM632.12,733.88,582.47,383.33h-2L531.81,733.88Z" transform="translate(-391.58 -259.72)"/><path d="M886.41,667,751.66,259.72H870.2l76,260.38h2l76-260.38h108.41L997.86,667V968.93H886.41Z" transform="translate(-391.58 -259.72)"/><path d="M1183.27,259.72h168.18q86.1,0,125.63,40t39.52,123.1v28.37q0,54.71-17.74,89.16T1444.66,590v2q83.07,28.38,83.08,147.92v60.79q0,82.07-43.06,125.12t-126.14,43.06H1183.27Zm155,288.75q33.43,0,50.15-17.22t16.72-57.75V434q0-38.49-13.68-55.72T1348.41,361h-53.7V548.47Zm20.26,319.15q29.37,0,43.57-15.71t14.18-54.2v-61.8q0-48.64-16.72-67.38t-55.21-18.74h-49.65V867.62Z" transform="translate(-391.58 -259.72)"/><path d="M391.58,1020.94H503v288.75H622.58V1020.94H734v709.21H622.58V1411H503v319.15H391.58Z" transform="translate(-391.58 -259.72)"/><path d="M855.6,1694.18Q813,1648.09,813.05,1562v-541H924.5v549.13q0,36.47,14.69,52.68t42,16.21q27.36,0,42-16.21t14.69-52.68V1020.94h107.39v541q0,86.13-42.55,132.22t-123.6,46.1Q898.14,1740.28,855.6,1694.18Z" transform="translate(-391.58 -259.72)"/><path d="M1224.38,1020.94h168.19q86.1,0,125.63,40t39.51,123.1v28.36q0,54.72-17.73,89.16t-54.2,49.64v2q83.06,28.38,83.08,147.92V1562q0,82.07-43.06,125.13t-126.14,43.06H1224.38Zm155,288.75q33.43,0,50.15-17.23t16.71-57.75V1195.2q0-38.49-13.67-55.72t-43.06-17.23h-53.7v187.44Zm20.26,319.14q29.37,0,43.57-15.7t14.18-54.21v-61.8q0-48.63-16.72-67.38T1385.47,1411h-49.64v217.83Z" transform="translate(-391.58 -259.72)"/></svg>