<svg id="Layer_1" data-name="Layer 1" xmlns="http://www.w3.org/2000/svg" viewBox="0 0 2734.75 3439.24"><defs><style>.cls-1{fill:#fff;}.cls-2{fill:#4582c3;}</style></defs><title>AYB HUB B-W TYPO</title><path class="cls-1" d="M1443.38,756.84h350.67l268.3,1647.45H1803.46l-47.07-327.13v4.7H1462.2l-47.07,322.43H1175.08Zm282.41,1101.44L1610.48,1044h-4.72l-113,814.32Z" transform="translate(-1167.04 -756.84)"/><path class="cls-1" d="M2316.51,1703l-313-946.11h275.36l176.51,604.85h4.7l176.52-604.85h251.82L2575.4,1703v701.34H2316.51Z" transform="translate(-1167.04 -756.84)"/><path class="cls-1" d="M3006.09,756.84h390.67q200,0,291.84,93t91.79,286v65.9q0,127.1-41.19,207.11t-125.92,115.32v4.71q193,65.91,193,343.61v141.21q0,190.64-100,290.66t-293,100H3006.09Zm360.08,670.74q77.65,0,116.5-40t38.83-134.15v-91.79q0-89.42-31.77-129.44t-100-40H3265v435.39Zm47.07,741.36q68.24,0,101.2-36.48t32.95-125.91V1863q0-113-38.84-156.51t-128.26-43.54H3265v506Z" transform="translate(-1167.04 -756.84)"/><path class="cls-2" d="M1167,2525.1h258.88v670.74h277.72V2525.1h258.88V4172.54H1703.64V3431.19H1425.92v741.35H1167Z" transform="translate(-1167.04 -756.84)"/><path class="cls-2" d="M2244.94,4089q-98.85-107.05-98.85-307.12V2525.1H2405V3800.69q0,84.73,34.12,122.38t97.67,37.66q63.55,0,97.67-37.66t34.13-122.38V2525.1H2918V3781.87q0,200.05-98.84,307.12t-287.13,107.09Q2343.75,4196.08,2244.94,4089Z" transform="translate(-1167.04 -756.84)"/><path class="cls-2" d="M3101.6,2525.1h390.68q200,0,291.83,93t91.79,286v65.89q0,127.09-41.19,207.11T3708.8,3292.34v4.7q193,65.91,193,343.62v141.21q0,190.62-100,290.65t-293,100H3101.6Zm360.08,670.74q77.67,0,116.5-40T3617,3021.68v-91.79q0-89.4-31.77-129.44t-100-40H3360.48v435.4Zm47.07,741.35q68.23,0,101.2-36.47t33-125.92V3631.24q0-113-38.83-156.51t-128.27-43.54H3360.48v506Z" transform="translate(-1167.04 -756.84)"/></svg>