<svg id="Layer_1" data-name="Layer 1" xmlns="http://www.w3.org/2000/svg" viewBox="0 0 2640.13 3320.26"><defs><style>.cls-1{fill:#fff;}</style></defs><title>AYB HUB TYPO Wsvg</title><path class="cls-1" d="M1526.37,839.87h338.54l259,1590.46H1874l-45.44-315.82v4.54h-284l-45.44,311.28H1267.35ZM1799,1903.21l-111.33-786.14h-4.55l-109.06,786.14Z" transform="translate(-1259.59 -839.87)"/><path class="cls-1" d="M2369.3,1753.25,2067.11,839.87H2333l170.4,583.93h4.55l170.4-583.93h243.12l-302.19,913.38v677.08H2369.3Z" transform="translate(-1259.59 -839.87)"/><path class="cls-1" d="M3035,839.87h377.17q193.09,0,281.74,89.75t88.61,276.06v63.62q0,122.68-39.76,199.94t-121.56,111.33v4.55q186.27,63.63,186.31,331.72v136.32q0,184-96.56,280.6t-282.88,96.57H3035Zm347.63,647.54q75,0,112.47-38.62t37.49-129.51v-88.61q0-86.33-30.68-125t-96.56-38.63H3284.94v420.33Zm45.44,715.71q65.88,0,97.7-35.22t31.81-121.55v-138.6q0-109.07-37.49-151.1t-123.83-42H3284.94v488.5Z" transform="translate(-1259.59 -839.87)"/><path class="cls-1" d="M1259.59,2547h249.93v647.54h268.11V2547h249.93V4137.41H1777.63v-715.7H1509.52v715.7H1259.59Z" transform="translate(-1259.59 -839.87)"/><path class="cls-1" d="M2300.2,4056.75q-95.43-103.36-95.43-296.51V2547H2454.7V3778.42q0,81.79,33,118.14t94.29,36.36q61.33,0,94.29-36.36t32.94-118.14V2547H2950V3760.24q0,193.14-95.42,296.51t-277.2,103.38Q2395.59,4160.13,2300.2,4056.75Z" transform="translate(-1259.59 -839.87)"/><path class="cls-1" d="M3127.22,2547h377.16q193.1,0,281.74,89.75t88.62,276.06v63.62q0,122.68-39.77,199.94t-121.55,111.33v4.55q186.27,63.63,186.31,331.72v136.32q0,184-96.57,280.6t-282.87,96.57H3127.22Zm347.63,647.54q75,0,112.47-38.62t37.49-129.51v-88.61q0-86.33-30.68-125t-96.56-38.63H3377.15v420.33Zm45.44,715.71q65.86,0,97.7-35.22t31.81-121.55v-138.6q0-109.07-37.49-151.1t-123.83-42H3377.15V3910.2Z" transform="translate(-1259.59 -839.87)"/></svg>