<svg id="Layer_1" data-name="Layer 1" xmlns="http://www.w3.org/2000/svg" viewBox="0 0 4479.01 2623.06"><defs><style>.cls-1{fill:#fff;}.cls-2{fill:#4582c3;}</style></defs><title>AYB HUB WHITE</title><path class="cls-1" d="M2880.25,1209.48h265.21l202.91,1245.94H3152.58L3117,2208v3.56H2894.49l-35.6,243.85H2677.34Zm213.59,833-87.22-615.85h-3.56l-85.43,615.85Z" transform="translate(-260.5 -1188.47)"/><path class="cls-1" d="M3540.59,1925l-236.73-715.53h208.25l133.49,457.44h3.56l133.5-457.44h190.45L3736.38,1925v530.41H3540.59Z" transform="translate(-260.5 -1188.47)"/><path class="cls-1" d="M4062.1,1209.48h295.46q151.27,0,220.71,70.31t69.42,216.26v49.84q0,96.1-31.15,156.63t-95.22,87.21v3.57q145.92,49.85,146,259.86V2160q0,144.16-75.65,219.81T4370,2455.42H4062.1Zm272.33,507.28q58.72,0,88.1-30.26T4451.9,1585v-69.41q0-67.62-24-97.9t-75.65-30.26h-94.33v329.29ZM4370,2277.43q51.61,0,76.54-27.59t24.92-95.22V2046q0-85.44-29.37-118.36t-97-32.93h-87.21v382.68Z" transform="translate(-260.5 -1188.47)"/><path class="cls-1" d="M2671.26,2546.78h195.79v507.28h210V2546.78h195.79V3792.72H3077.08V3232.05h-210v560.67H2671.26Z" transform="translate(-260.5 -1188.47)"/><path class="cls-1" d="M3486.46,3729.54q-74.76-81-74.76-232.28V2546.78h195.79V3511.5q0,64.07,25.81,92.55t73.87,28.48q48,0,73.86-28.48t25.81-92.55V2546.78h188.67v950.48q0,151.3-74.75,232.28t-217.15,81Q3561.18,3810.52,3486.46,3729.54Z" transform="translate(-260.5 -1188.47)"/><path class="cls-1" d="M4134.33,2546.78H4429.8q151.26,0,220.71,70.31t69.42,216.26v49.84q0,96.11-31.15,156.63T4593.55,3127v3.57q145.94,49.84,145.95,259.86v106.8q0,144.16-75.64,219.82t-221.6,75.64H4134.33Zm272.33,507.28q58.74,0,88.11-30.26t29.36-101.46v-69.41q0-67.62-24-97.89t-75.65-30.27h-94.34v329.29Zm35.6,560.67q51.6,0,76.54-27.59t24.91-95.22V3383.35q0-85.45-29.37-118.37t-97-32.93h-87.22v382.68Z" transform="translate(-260.5 -1188.47)"/><path class="cls-2" d="M260.62,2499.15q0-482.85.15-965.72c.27-171.83,109.81-305.76,276.79-338.94,25-5,51.13-5.69,76.73-5.71q714.29-.48,1428.58-.13c176.56.12,307.27,100.61,345,265.4,6.1,26.63,8.44,54.67,8.47,82.06q.72,755.72.44,1511.44c0,66.18-22.47,122.32-69.49,169.23q-262.95,262.33-525.24,525.31c-46.13,46.27-101,69.21-166.33,69.17-343.81-.21-687.63,1.06-1031.44-.59-169.73-.81-297.44-103.27-334.41-263.83-6.76-29.33-8.85-60.31-8.91-90.54Q260.07,2977.74,260.62,2499.15Zm1065.51-639.36q239.92,0,479.85-.08c61.62-.1,102.23-39.06,100.63-95.4-1.44-51-42.49-87.47-99.9-87.54q-277.05-.36-554.11-.09-201.37,0-402.73-.06c-40.69,0-72.67,15.59-90.9,52.57-30.81,62.5,15.92,130.22,90.16,130.45C1008.13,1860.13,1167.13,1859.79,1326.13,1859.79Zm2.55,486.56q237,0,474.05-.15c13.2,0,27-.07,39.47-3.64,44.21-12.63,70.5-55.53,63.85-101.59-6.56-45.44-44.84-75.71-99.12-75.77q-478.34-.47-956.68.12c-14,0-28.81,1.79-41.93,6.43-41,14.51-64,56.58-56.9,100.6,6.66,41.29,44.39,73.64,88.93,73.76C1003.12,2346.55,1165.9,2346.29,1328.68,2346.35Zm306.51,1236.81,534.67-534.67h-23.94q-185.64,0-371.28,0c-93,0-140.43,47.32-140.58,140.53q-.29,185.64,0,371.28C1634.08,3569.49,1635,3578.66,1635.19,3583.16Zm-488.62-929.77q-148.44,0-296.9.06c-58.63.11-97.82,34.91-98.95,87.22-1.17,54.52,36.83,93.45,95.85,93.69q299.75,1.17,599.51-.06c57.61-.25,95.26-38.76,94.76-91.86-.49-52.29-40.11-88.83-97.36-89C1344.51,2653.22,1245.54,2653.39,1146.57,2653.39Zm-92.27,669.67c67.57,0,135.13.22,202.7-.06,60.44-.26,101.21-37.8,100.93-92.25-.28-52.85-41.12-90.58-99.56-90.71q-204.13-.43-408.26,0c-58.93.13-99.16,37.34-99.42,90.69-.27,54.6,40.34,92,100.91,92.26C919.16,3323.28,986.73,3323.06,1054.3,3323.06Z" transform="translate(-260.5 -1188.47)"/></svg>